# xmcd
#
# Track frame offsets: 
#        150
#        24442
#        47002
#        68940
#        87054
#        99654
#        121265
#        140345
#        162450
#        182345
#        209467
#        230127
#        248260
#        258640
#        276290
#
# Disc length: 3933 seconds
#
# Revision: 0
# Processed by: cddbd v1.5.2PL0 Copyright (c) Steve Scherf et al.
# Submitted via: ExactAudioCopyFreeDBPlugin 1.0
#
DISCID=ce0f5b0f
DTITLE=Slank - The Best 4
DYEAR=2005
DGENRE=Rock
TTITLE0=Foto Dalam Dompetmu
TTITLE1=Kamu Harus Pulang
TTITLE2=Kalau Kau Ingin Jadi Pacarku
TTITLE3=Terbunuh Sepi
TTITLE4=Bidadari Penyelamat
TTITLE5=Koepoe Liarkoe
TTITLE6=Lorong Hitam
TTITLE7=HAM Burger
TTITLE8=Pisah Saja Dulu
TTITLE9=Reaksi
TTITLE10=Jinna (Dalam Pelarian)
TTITLE11=Ngga Perlu
TTITLE12=Josephira
TTITLE13=Bersama Kita Menangis
TTITLE14=Telanjang
EXTD=
EXTT0=
EXTT1=
EXTT2=
EXTT3=
EXTT4=
EXTT5=
EXTT6=
EXTT7=
EXTT8=
EXTT9=
EXTT10=
EXTT11=
EXTT12=
EXTT13=
EXTT14=
PLAYORDER=
